<svg xmlns="http://www.w3.org/2000/svg" viewBox="0 0 24 24"><path d="M24,23a1,1,0,0,0-1-1H12.75a.25.25,0,0,1-.25-.25v-3a.25.25,0,0,1,.25-.25H18.5A1.5,1.5,0,0,0,20,17V10.707a.25.25,0,0,1,.427-.177l1.543,1.543a.75.75,0,1,0,1.06-1.061L12.384.366a1.251,1.251,0,0,0-1.768,0L.22,10.762a.75.75,0,0,0,1.06,1.061L2.573,10.53A.25.25,0,0,1,3,10.707V17a1.5,1.5,0,0,0,1.5,1.5h5.75a.25.25,0,0,1,.25.25v3a.25.25,0,0,1-.25.25H1a1,1,0,0,0,0,2H23A1,1,0,0,0,24,23ZM9.5,17a.5.5,0,0,1-.5-.5v-5a.5.5,0,0,1,.5-.5h4a.5.5,0,0,1,.5.5v5a.5.5,0,0,1-.5.5Z"/></svg>