<svg xmlns="http://www.w3.org/2000/svg" viewBox="0 0 24 24"><path d="M21 13.872H17.25a.25.25 0 01-.25-.25V9.872a1.5 1.5 0 00-3 0v3.75a.25.25 0 01-.25.25H3a3 3 0 00-3 3v2a3 3 0 002.769 2.991A.251.251 0 013 22.112v.51a1.5 1.5 0 003 0v-.5a.25.25 0 01.25-.25h11.5a.25.25 0 01.25.25v.5a1.5 1.5 0 003 0v-.509a.248.248 0 01.231-.249A3 3 0 0024 18.872v-2A3 3 0 0021 13.872zM8.081 16.7a1.125 1.125 0 11-1.125 1.125A1.125 1.125 0 018.081 16.7zm-3.875 2.33a1.175 1.175 0 01-.718-.262A1.184 1.184 0 013 17.828a1.206 1.206 0 112.411 0 1.176 1.176 0 01-.252.7A1.185 1.185 0 014.206 19.033zM11.257 5.63a1 1 0 101.414 1.414 4.1 4.1 0 015.658 0A1 1 0 1019.743 5.63a6 6 0 00-8.486 0z"/><path d="M9.843,4.215a8.01,8.01,0,0,1,11.314,0A1,1,0,0,0,22.571,2.8a10.013,10.013,0,0,0-14.142,0A1,1,0,1,0,9.843,4.215Z"/></svg>