<svg xmlns="http://www.w3.org/2000/svg" viewBox="0 0 24 24"><rect width="5.75" height="7.25" x="4.252" y="4.5" rx="1.25" ry="1.25"/><path d="M24,10a3,3,0,0,0-3-3H19V2.5a2,2,0,0,0-2-2H2a2,2,0,0,0-2,2V20a3.5,3.5,0,0,0,3.5,3.5h17A3.5,3.5,0,0,0,24,20ZM3.5,21.5A1.5,1.5,0,0,1,2,20V3a.5.5,0,0,1,.5-.5h14A.5.5,0,0,1,17,3V20a3.494,3.494,0,0,0,.11.874.5.5,0,0,1-.484.625ZM22,20a1.5,1.5,0,1,1-3,0V9.5a.5.5,0,0,1,.5-.5H21a1,1,0,0,1,1,1Z"/><path d="M12.751 6.047h2a.75.75 0 01.75.75v.5a.75.75 0 01-.75.75h-2A.749.749 0 0112 7.3V6.8A.751.751 0 0112.751 6.047zM12.751 10.047h2a.75.75 0 01.75.75v.5a.75.75 0 01-.75.75h-2A.75.75 0 0112 11.3v-.5A.751.751 0 0112.751 10.047zM4.751 14.047h10a.75.75 0 01.75.75v.5a.75.75 0 01-.75.75h-10A.75.75 0 014 15.3v-.5A.751.751 0 014.751 14.047zM4.75 18.047h7.5a.75.75 0 01.75.75v.5a.75.75 0 01-.75.75h-7.5A.749.749 0 014 19.3v-.5A.75.75 0 014.75 18.047z"/></svg>